<?xml version="1.0" encoding="UTF-8" standalone="no"?>
<!-- Created with Inkscape (http://www.inkscape.org/) -->

<svg
   version="1.1"
   id="svg1"
   width="500"
   height="500"
   viewBox="0 0 500 500"
   sodipodi:docname="logo.svg"
   inkscape:version="1.4.4 (dcaf3e7d9e, 2026-05-05)"
   xmlns:inkscape="http://www.inkscape.org/namespaces/inkscape"
   xmlns:sodipodi="http://sodipodi.sourceforge.net/DTD/sodipodi-0.dtd"
   xmlns="http://www.w3.org/2000/svg"
   xmlns:svg="http://www.w3.org/2000/svg">
  <defs
     id="defs1" />
  <sodipodi:namedview
     id="namedview1"
     pagecolor="#505050"
     bordercolor="#eeeeee"
     borderopacity="1"
     inkscape:showpageshadow="0"
     inkscape:pageopacity="0"
     inkscape:pagecheckerboard="0"
     inkscape:deskcolor="#505050"
     inkscape:zoom="1.1016724"
     inkscape:cx="249.16664"
     inkscape:cy="346.2917"
     inkscape:window-width="1920"
     inkscape:window-height="990"
     inkscape:window-x="0"
     inkscape:window-y="0"
     inkscape:window-maximized="1"
     inkscape:current-layer="g1" />
  <g
     inkscape:groupmode="layer"
     inkscape:label="Image"
     id="g1">
    <path
       style="fill:none;stroke:#000000;stroke-width:2;stroke-linecap:round;stroke-linejoin:round;"
       d="m 94.939989,443.73683 c -0.329773,-0.72209 -0.325029,-91.7061 0.0097,-202.18665 L 95.560614,40.676471 h 45.471756 45.47175 V 173.717 c 0,73.17231 0.34563,133.04056 0.76807,133.04056 0.42244,0 9.37201,-4.89044 19.88795,-10.86766 37.45047,-21.28666 66.83608,-29.89458 100.9862,-29.58184 31.17611,0.28551 53.62545,7.94902 78.77027,26.88982 5.11173,3.8505 8.86016,7.39237 8.32981,7.87083 -0.53031,0.47846 -6.45891,-1.10609 -13.17461,-3.52122 -26.94355,-9.68954 -59.33955,-12.42055 -89.82196,-7.57204 -37.80396,6.01304 -75.63782,24.83215 -113.53593,56.47441 l -18.4037,15.36578 -0.49603,-148.31585 -0.49602,-148.315848 H 140.89637 122.4746 V 241.11255 c 0,175.92863 0,175.92863 4.36564,175.90226 14.99224,-0.0905 37.86712,-12.69045 86.46523,-47.62678 67.92375,-48.82921 105.35812,-62.04127 150.82567,-53.23231 13.21835,2.56097 35.13834,11.04247 33.15743,12.82963 -0.71386,0.64405 -2.11074,0.4358 -3.10414,-0.46282 -1.05741,-0.95647 -12.90913,-1.20275 -28.58694,-0.59403 -31.25774,1.21361 -45.93267,4.97618 -76.25806,19.55216 -21.66092,10.41135 -29.07127,15.20368 -66.22883,42.83063 -15.33135,11.39896 -32.83656,24.0312 -38.90044,28.07163 -14.69274,9.78989 -38.67653,20.65319 -52.92685,23.97286 -11.9923,2.79367 -35.293837,3.67912 -36.343321,1.38105 z m 140.845591,-2.72307 c 14.71625,-10.05015 33.74463,-24.79001 54.76705,-42.42396 32.3245,-27.11425 47.39489,-36.05285 72.28428,-42.87342 11.62859,-3.18666 17.20388,-3.73958 30.05371,-2.98056 19.07909,1.12695 30.76237,5.3601 43.1743,15.6431 9.22227,7.64043 21.91596,27.99418 18.16357,29.1244 -1.08335,0.3263 -5.03532,-1.83515 -8.78222,-4.80322 -10.49742,-8.31549 -20.73292,-12.26561 -37.2105,-14.36042 -21.94275,-2.78962 -34.98021,-1.23751 -52.43899,6.24277 -19.77261,8.47166 -50.406,30.73291 -47.70897,34.67004 0.66506,0.97082 25.96707,1.41623 62.49019,1.10001 60.41934,-0.52307 61.50193,-0.47024 69.69499,3.40089 8.39109,3.96469 15.91062,12.57451 15.92402,18.23291 0.007,2.88368 -6.62452,3.05773 -113.01457,2.96617 -113.02182,-0.0971 -113.02182,-0.0971 -107.39686,-3.93871 z"
       id="path1" />
  </g>
</svg>

